<svg width="40" height="40" viewBox="0 0 40 40" fill="none" xmlns="http://www.w3.org/2000/svg">
<path d="M10.625 20.2188C10.625 19.8458 10.7732 19.4881 11.0369 19.2244C11.3006 18.9607 11.6583 18.8125 12.0312 18.8125C12.4042 18.8125 12.7619 18.9607 13.0256 19.2244C13.2893 19.4881 13.4375 19.8458 13.4375 20.2188C13.4375 20.5917 13.2893 20.9494 13.0256 21.2131C12.7619 21.4768 12.4042 21.625 12.0312 21.625C11.6583 21.625 11.3006 21.4768 11.0369 21.2131C10.7732 20.9494 10.625 20.5917 10.625 20.2188ZM12.0312 24.4375C11.6583 24.4375 11.3006 24.5857 11.0369 24.8494C10.7732 25.1131 10.625 25.4708 10.625 25.8438C10.625 26.2167 10.7732 26.5744 11.0369 26.8381C11.3006 27.1018 11.6583 27.25 12.0312 27.25C12.4042 27.25 12.7619 27.1018 13.0256 26.8381C13.2893 26.5744 13.4375 26.2167 13.4375 25.8438C13.4375 25.4708 13.2893 25.1131 13.0256 24.8494C12.7619 24.5857 12.4042 24.4375 12.0312 24.4375V24.4375ZM10.625 31.4688C10.625 31.0958 10.7732 30.7381 11.0369 30.4744C11.3006 30.2107 11.6583 30.0625 12.0312 30.0625C12.4042 30.0625 12.7619 30.2107 13.0256 30.4744C13.2893 30.7381 13.4375 31.0958 13.4375 31.4688C13.4375 31.8417 13.2893 32.1994 13.0256 32.4631C12.7619 32.7269 12.4042 32.875 12.0312 32.875C11.6583 32.875 11.3006 32.7269 11.0369 32.4631C10.7732 32.1994 10.625 31.8417 10.625 31.4688ZM17.6562 18.8125C17.2833 18.8125 16.9256 18.9607 16.6619 19.2244C16.3982 19.4881 16.25 19.8458 16.25 20.2188C16.25 20.5917 16.3982 20.9494 16.6619 21.2131C16.9256 21.4768 17.2833 21.625 17.6562 21.625H27.9687C28.3417 21.625 28.6994 21.4768 28.9631 21.2131C29.2268 20.9494 29.375 20.5917 29.375 20.2188C29.375 19.8458 29.2268 19.4881 28.9631 19.2244C28.6994 18.9607 28.3417 18.8125 27.9687 18.8125H17.6562ZM16.25 25.8438C16.25 25.4708 16.3982 25.1131 16.6619 24.8494C16.9256 24.5857 17.2833 24.4375 17.6562 24.4375H27.9687C28.3417 24.4375 28.6994 24.5857 28.9631 24.8494C29.2268 25.1131 29.375 25.4708 29.375 25.8438C29.375 26.2167 29.2268 26.5744 28.9631 26.8381C28.6994 27.1018 28.3417 27.25 27.9687 27.25H17.6562C17.2833 27.25 16.9256 27.1018 16.6619 26.8381C16.3982 26.5744 16.25 26.2167 16.25 25.8438ZM17.6562 30.0625C17.2833 30.0625 16.9256 30.2107 16.6619 30.4744C16.3982 30.7381 16.25 31.0958 16.25 31.4688C16.25 31.8417 16.3982 32.1994 16.6619 32.4631C16.9256 32.7269 17.2833 32.875 17.6562 32.875H27.9687C28.3417 32.875 28.6994 32.7269 28.9631 32.4631C29.2268 32.1994 29.375 31.8417 29.375 31.4688C29.375 31.0958 29.2268 30.7381 28.9631 30.4744C28.6994 30.2107 28.3417 30.0625 27.9687 30.0625H17.6562ZM33.9012 13.0263L22.9719 2.09875C22.9429 2.07181 22.9122 2.04676 22.88 2.02375C22.8568 2.00585 22.8343 1.98709 22.8125 1.9675C22.6835 1.84576 22.5463 1.73299 22.4019 1.63C22.3539 1.59903 22.3037 1.57146 22.2519 1.5475L22.1619 1.5025L22.0681 1.44813C21.9669 1.39 21.8637 1.33 21.7569 1.285C21.3835 1.13587 20.9883 1.04848 20.5869 1.02625C20.5498 1.02384 20.5129 1.01945 20.4762 1.01312C20.4254 1.00527 20.374 1.00088 20.3225 1H8.75C7.75544 1 6.80161 1.39509 6.09835 2.09835C5.39509 2.80161 5 3.75544 5 4.75V34.75C5 35.7446 5.39509 36.6984 6.09835 37.4017C6.80161 38.1049 7.75544 38.5 8.75 38.5H31.25C32.2446 38.5 33.1984 38.1049 33.9016 37.4017C34.6049 36.6984 35 35.7446 35 34.75V15.6775C34.9998 14.683 34.6046 13.7294 33.9012 13.0263V13.0263ZM32.1875 34.75C32.1875 34.9987 32.0887 35.2371 31.9129 35.4129C31.7371 35.5887 31.4986 35.6875 31.25 35.6875H8.75C8.50136 35.6875 8.2629 35.5887 8.08709 35.4129C7.91127 35.2371 7.8125 34.9987 7.8125 34.75V4.75C7.8125 4.50136 7.91127 4.2629 8.08709 4.08709C8.2629 3.91127 8.50136 3.8125 8.75 3.8125H20V12.25C20 13.2446 20.3951 14.1984 21.0983 14.9017C21.8016 15.6049 22.7554 16 23.75 16H32.1875V34.75ZM22.8125 5.91438L30.0837 13.1875H23.75C23.5014 13.1875 23.2629 13.0887 23.0871 12.9129C22.9113 12.7371 22.8125 12.4986 22.8125 12.25V5.91438Z" fill="#579AF4"/>
</svg>
