<svg width="40" height="40" viewBox="0 0 40 40" fill="none" xmlns="http://www.w3.org/2000/svg">
<path fill-rule="evenodd" clip-rule="evenodd" d="M19.75 1C20.2473 1 20.7242 1.19754 21.0758 1.54917C21.4275 1.90081 21.625 2.37772 21.625 2.875V2.97813C25.4291 3.40452 28.9754 5.11107 31.6822 7.81783C34.3889 10.5246 36.0955 14.0709 36.5219 17.875H36.625C37.1223 17.875 37.5992 18.0725 37.9508 18.4242C38.3025 18.7758 38.5 19.2527 38.5 19.75C38.5 20.2473 38.3025 20.7242 37.9508 21.0758C37.5992 21.4275 37.1223 21.625 36.625 21.625H36.5219C36.0955 25.4291 34.3889 28.9754 31.6822 31.6822C28.9754 34.3889 25.4291 36.0955 21.625 36.5219V36.625C21.625 37.1223 21.4275 37.5992 21.0758 37.9508C20.7242 38.3025 20.2473 38.5 19.75 38.5C19.2527 38.5 18.7758 38.3025 18.4242 37.9508C18.0725 37.5992 17.875 37.1223 17.875 36.625V36.5219C14.0709 36.0955 10.5246 34.3889 7.81783 31.6822C5.11107 28.9754 3.40452 25.4291 2.97813 21.625H2.875C2.37772 21.625 1.90081 21.4275 1.54917 21.0758C1.19754 20.7242 1 20.2473 1 19.75C1 19.2527 1.19754 18.7758 1.54917 18.4242C1.90081 18.0725 2.37772 17.875 2.875 17.875H2.97813C3.40452 14.0709 5.11107 10.5246 7.81783 7.81783C10.5246 5.11107 14.0709 3.40452 17.875 2.97813V2.875C17.875 2.37772 18.0725 1.90081 18.4242 1.54917C18.7758 1.19754 19.2527 1 19.75 1V1ZM19.75 6.625C18.0264 6.625 16.3197 6.96449 14.7273 7.62408C13.1349 8.28368 11.688 9.25046 10.4692 10.4692C9.25046 11.688 8.28368 13.1349 7.62408 14.7273C6.96449 16.3197 6.625 18.0264 6.625 19.75C6.625 21.4736 6.96449 23.1803 7.62408 24.7727C8.28368 26.3651 9.25046 27.812 10.4692 29.0308C11.688 30.2496 13.1349 31.2163 14.7273 31.8759C16.3197 32.5355 18.0264 32.875 19.75 32.875C23.231 32.875 26.5694 31.4922 29.0308 29.0308C31.4922 26.5694 32.875 23.231 32.875 19.75C32.875 16.269 31.4922 12.9306 29.0308 10.4692C26.5694 8.00781 23.231 6.625 19.75 6.625ZM19.75 12.25C21.7391 12.25 23.6468 13.0402 25.0533 14.4467C26.4598 15.8532 27.25 17.7609 27.25 19.75C27.25 21.7391 26.4598 23.6468 25.0533 25.0533C23.6468 26.4598 21.7391 27.25 19.75 27.25C17.7609 27.25 15.8532 26.4598 14.4467 25.0533C13.0402 23.6468 12.25 21.7391 12.25 19.75C12.25 17.7609 13.0402 15.8532 14.4467 14.4467C15.8532 13.0402 17.7609 12.25 19.75 12.25V12.25ZM19.75 16C18.7554 16 17.8016 16.3951 17.0984 17.0984C16.3951 17.8016 16 18.7554 16 19.75C16 20.7446 16.3951 21.6984 17.0984 22.4017C17.8016 23.1049 18.7554 23.5 19.75 23.5C20.7446 23.5 21.6984 23.1049 22.4017 22.4017C23.1049 21.6984 23.5 20.7446 23.5 19.75C23.5 18.7554 23.1049 17.8016 22.4017 17.0984C21.6984 16.3951 20.7446 16 19.75 16Z" fill="#579AF4"/>
</svg>
