<svg width="16" height="16" viewBox="0 0 16 16" fill="none" xmlns="http://www.w3.org/2000/svg">
<g clip-path="url(#clip0_370_646)">
<path d="M7.03583 4.16001L4.7805 1.55668C4.5205 1.25668 4.04383 1.25801 3.74183 1.56068L1.88716 3.41868C1.33516 3.97134 1.17716 4.79201 1.4965 5.45001C3.40424 9.39999 6.58986 12.5901 10.5372 14.5033C11.1945 14.8227 12.0145 14.6647 12.5665 14.112L14.4385 12.2367C14.7418 11.9333 14.7425 11.454 14.4398 11.194L11.8265 8.95068C11.5532 8.71601 11.1285 8.74668 10.8545 9.02134L9.94516 9.93201C9.89861 9.9808 9.83733 10.013 9.77073 10.0236C9.70413 10.0342 9.63589 10.0226 9.5765 9.99068C8.09013 9.13474 6.85716 7.90016 6.00316 6.41268C5.97118 6.35318 5.9596 6.28483 5.9702 6.21811C5.98079 6.1514 6.01298 6.09 6.06183 6.04334L6.9685 5.13601C7.24316 4.86001 7.27316 4.43334 7.03583 4.15934V4.16001Z" stroke="#579AF4" stroke-width="1.4" stroke-linecap="round" stroke-linejoin="round"/>
</g>
<defs>
<clipPath id="clip0_370_646">
<rect width="16" height="16" fill="white"/>
</clipPath>
</defs>
</svg>
