<?xml version="1.0" encoding="UTF-8"?>
<svg id="Layer_1" data-name="Layer 1" xmlns="http://www.w3.org/2000/svg" viewBox="0 0 27.61 27.61">
  <path d="M25.14,.45L13.81,11.78,2.47,.45C2.2,.2,1.84,.06,1.47,.07S.75,.23,.49,.49C.23,.75,.08,1.1,.07,1.47c0,.37,.13,.73,.38,1L11.78,13.81,.44,25.14c-.14,.13-.25,.29-.33,.47-.08,.18-.12,.36-.12,.56,0,.19,.03,.38,.11,.56,.07,.18,.18,.34,.31,.47,.14,.14,.3,.24,.47,.31,.18,.07,.37,.11,.56,.11,.19,0,.38-.04,.56-.12,.18-.08,.33-.19,.47-.32L13.81,15.84l11.33,11.33c.27,.25,.63,.38,1,.38,.37,0,.72-.16,.98-.42,.26-.26,.41-.61,.42-.98s-.13-.73-.38-1L15.83,13.81,27.17,2.47c.14-.13,.25-.29,.33-.47,.08-.18,.12-.36,.12-.56,0-.19-.03-.38-.11-.56-.07-.18-.18-.34-.31-.47-.14-.14-.3-.24-.47-.31-.18-.07-.37-.11-.56-.11s-.38,.04-.56,.12c-.18,.08-.33,.19-.47,.32h0Z"/>
</svg>