<?xml version="1.0" encoding="UTF-8"?>
<svg id="Layer_1" data-name="Layer 1" xmlns="http://www.w3.org/2000/svg" viewBox="0 0 45 45">
  <defs>
    <style>
      .cls-1 {
        fill-rule: evenodd;
      }
    </style>
  </defs>
  <path class="cls-1" d="M11.25,22.5c0-.37,.15-.73,.41-.99,.26-.26,.62-.41,.99-.41H28.95l-6.04-6.04c-.13-.13-.23-.29-.31-.46-.07-.17-.11-.35-.11-.54s.04-.37,.11-.54c.07-.17,.17-.33,.31-.46,.13-.13,.29-.23,.46-.31,.17-.07,.35-.11,.54-.11s.37,.04,.54,.11c.17,.07,.33,.17,.46,.31l8.44,8.44c.13,.13,.23,.29,.31,.46,.07,.17,.11,.35,.11,.54s-.04,.37-.11,.54c-.07,.17-.17,.33-.31,.46l-8.44,8.44c-.26,.26-.62,.41-1,.41s-.73-.15-1-.41c-.26-.26-.41-.62-.41-1s.15-.73,.41-1l6.04-6.04H12.66c-.37,0-.73-.15-.99-.41-.26-.26-.41-.62-.41-.99Z"/>
</svg>