<?xml version="1.0" encoding="UTF-8"?>
<svg id="Layer_1" data-name="Layer 1" xmlns="http://www.w3.org/2000/svg" viewBox="0 0 144 12">
  <path d="M0,11.48L4.78,.61h1.77l4.78,10.87h-2.01l-1.11-2.6H3.08l-1.11,2.6H0ZM3.76,7.19h3.74l-1.87-4.32-1.87,4.32Z"/>
  <path d="M24.73,11.81l-1.3-1.15c-.95,.67-2.06,1.02-3.31,1.02-1.65,0-3-.53-4.05-1.62-1.06-1.09-1.59-2.39-1.59-3.96s.54-2.86,1.61-3.95c1.07-1.09,2.42-1.64,4.07-1.64s3,.53,4.05,1.62c1.06,1.09,1.59,2.39,1.59,3.96,0,1.24-.36,2.34-1.11,3.31l1.25,1.05-1.21,1.36Zm-4.57-1.88c.69,0,1.32-.17,1.85-.52l-1.85-1.57,1.23-1.4,1.87,1.69c.36-.57,.55-1.24,.55-2.05,0-1.07-.35-1.98-1.04-2.72-.69-.74-1.58-1.12-2.65-1.12s-1.94,.36-2.63,1.1c-.69,.74-1.04,1.65-1.04,2.72s.35,1.98,1.04,2.72c.71,.76,1.59,1.14,2.67,1.14Z"/>
  <path d="M35.5,11.66c-1.44,0-2.56-.41-3.38-1.22-.81-.81-1.23-1.98-1.23-3.53V.7h1.9V6.83c0,.98,.24,1.74,.73,2.27,.48,.53,1.16,.81,2.01,.81s1.52-.26,2.01-.78c.48-.52,.73-1.26,.73-2.24V.7h1.9V6.81c0,1.57-.42,2.77-1.25,3.6-.83,.83-1.97,1.24-3.43,1.24Z"/>
  <path d="M46.46,11.48V.7h1.9V11.48h-1.9Z"/>
  <path d="M54.79,11.48V.7h1.9V9.76h5.7v1.72h-7.6Z"/>
  <path d="M65.7,11.48L70.48,.61h1.77l4.78,10.87h-2.01l-1.11-2.6h-5.13l-1.11,2.6h-1.97Zm3.77-4.29h3.74l-1.87-4.32-1.87,4.32Z"/>
  <path d="M81.4,11.48V.7h2.03l3.31,5.1,3.29-5.1h2.03V11.48h-1.9V3.75l-3.43,5.08h-.07l-3.39-5.05v7.7h-1.85Z"/>
  <path d="M97.8,11.48V.7h8.03v1.69h-6.13v2.81h5.44v1.69h-5.44v2.89h6.22v1.69h-8.12v.02Z"/>
  <path d="M111.12,11.48V.7h4.05c1.7,0,3.08,.52,4.16,1.53,1.07,1.02,1.61,2.31,1.61,3.86s-.54,2.83-1.61,3.86c-1.07,1.03-2.46,1.53-4.14,1.53h-4.07Zm1.91-1.72h2.13c1.12,0,2.03-.34,2.72-1.02,.69-.69,1.04-1.57,1.04-2.64s-.35-1.95-1.04-2.64c-.69-.69-1.59-1.03-2.72-1.03h-2.13v7.32Z"/>
  <path d="M126.11,11.48V.7h1.91V11.48h-1.91Z"/>
  <path d="M132.68,11.48l4.78-10.87h1.77l4.78,10.87h-2.01l-1.11-2.6h-5.13l-1.11,2.6h-1.97Zm3.76-4.29h3.74l-1.87-4.32-1.87,4.32Z"/>
</svg>