<?xml version="1.0" encoding="UTF-8"?>
<svg id="Layer_1" data-name="Layer 1" xmlns="http://www.w3.org/2000/svg" viewBox="0 0 14 14">
  <path d="M7,14c-1.38,0-2.74-.41-3.89-1.18-1.15-.77-2.05-1.86-2.58-3.14C0,8.4-.14,6.99,.13,5.63c.27-1.36,.94-2.61,1.92-3.58C3.03,1.07,4.28,.4,5.63,.13,6.99-.14,8.4,0,9.68,.53c1.28,.53,2.37,1.43,3.14,2.58,.77,1.15,1.18,2.5,1.18,3.89,0,1.86-.74,3.64-2.05,4.95-1.31,1.31-3.09,2.05-4.95,2.05ZM7,1c-1.19,0-2.35,.35-3.33,1.01-.99,.66-1.76,1.6-2.21,2.69-.45,1.1-.57,2.3-.34,3.47,.23,1.16,.8,2.23,1.64,3.07,.84,.84,1.91,1.41,3.07,1.64,1.16,.23,2.37,.11,3.47-.34,1.1-.45,2.03-1.22,2.69-2.21,.66-.99,1.01-2.15,1.01-3.33,0-1.59-.63-3.12-1.76-4.24-1.13-1.13-2.65-1.76-4.24-1.76Z"/>
  <path d="M9.3,10l-2.8-2.8V2.5h1V6.79l2.5,2.51-.7,.7Z"/>
</svg>