<?xml version="1.0" encoding="UTF-8"?>
<svg id="Layer_1" data-name="Layer 1" xmlns="http://www.w3.org/2000/svg" viewBox="0 0 20 20">
  <path d="M9.23,2.19c.27-.7,1.28-.7,1.54,0l1.73,4.78c.06,.16,.17,.29,.3,.38,.14,.09,.3,.14,.47,.14h4.24c.78,0,1.12,.98,.51,1.45l-3.02,2.71c-.14,.1-.23,.25-.28,.41-.05,.16-.04,.34,.01,.5l1.1,4.67c.27,.75-.6,1.39-1.26,.93l-4.1-2.6c-.14-.1-.31-.15-.48-.15s-.34,.05-.48,.15l-4.1,2.6c-.66,.46-1.52-.18-1.26-.93l1.1-4.67c.06-.16,.06-.34,.01-.5-.05-.16-.15-.31-.28-.41l-3.02-2.71c-.62-.48-.27-1.45,.51-1.45H6.73c.17,0,.33-.05,.47-.14,.14-.09,.24-.23,.3-.38l1.72-4.78h0Z"/>
</svg>