<svg width="1680" height="825" viewBox="0 0 1680 825" fill="none" xmlns="http://www.w3.org/2000/svg">
<rect width="1680" height="825" fill="#579AF4"/>
<g clip-path="url(#clip0_402_392)">
<g opacity="0.5" filter="url(#filter0_d_402_392)">
<path opacity="0.01" d="M1245.93 799.502V1058.17C1005.14 1132.36 528.639 1296.38 548.916 1358.94C561.63 1398.17 846.716 1304.8 1049.49 1244.65C1252.27 1184.49 1534.36 1079.58 1575.41 1190.51C1641.31 1368.56 984.016 1822.13 650.298 2032.67L618.616 1665.73C823.493 1567.47 1253.52 1357.74 1233.25 1304.8C1207.9 1238.63 460.195 1599.56 390.511 1407.06C320.828 1214.57 929.106 927.832 1245.93 799.502Z" fill="#8FBFFF"/>
<path opacity="0.111111" d="M1289.07 692.779V950.721C1049.01 1024.7 573.953 1188.27 594.168 1250.65C606.843 1289.77 891.067 1196.67 1093.23 1136.68C1295.39 1076.69 1576.63 972.078 1617.56 1082.69C1683.26 1260.25 1027.95 1712.55 695.243 1922.5L663.657 1556.58C867.915 1458.61 1296.64 1249.45 1276.43 1196.67C1251.16 1130.68 505.716 1490.6 436.243 1298.64C366.77 1106.69 973.208 820.75 1289.07 692.779Z" fill="#9BC6FF"/>
<path opacity="0.222222" d="M1328.29 589.501V846.72C1088.96 920.496 615.343 1083.6 635.497 1145.81C648.134 1184.82 931.495 1091.98 1133.04 1032.16C1334.59 972.339 1614.98 868.017 1655.78 978.321C1721.28 1155.38 1067.96 1606.41 736.266 1815.78L704.776 1450.89C908.413 1353.18 1335.84 1144.62 1315.69 1091.98C1290.5 1026.18 547.314 1385.09 478.051 1193.67C408.789 1002.25 1013.39 717.113 1328.29 589.501Z" fill="#A8CDFF"/>
<path opacity="0.333333" d="M1363.59 489.667V746.164C1124.99 819.732 652.816 982.379 672.908 1044.42C685.507 1083.31 968.006 990.73 1168.94 931.08C1369.88 871.43 1649.41 767.401 1690.09 877.395C1755.39 1053.96 1104.06 1503.72 773.371 1712.5L741.976 1348.63C944.994 1251.2 1371.12 1043.22 1351.03 990.73C1325.91 925.115 584.993 1283.02 515.942 1092.14C446.89 901.255 1049.65 616.921 1363.59 489.667Z" fill="#B4D4FF"/>
<path opacity="0.444444" d="M1394.97 393.277V649.052C1157.1 722.413 686.363 884.602 706.394 946.464C718.954 985.253 1000.59 892.93 1200.91 833.447C1401.23 773.965 1679.91 670.229 1720.47 779.913C1785.57 955.981 1136.23 1404.48 806.55 1612.67L775.251 1249.82C977.649 1152.67 1402.47 945.274 1382.44 892.93C1357.41 827.499 618.748 1184.39 549.907 994.05C481.067 803.706 1081.98 520.173 1394.97 393.277Z" fill="#C1DBFF"/>
<path opacity="0.555556" d="M1423.73 300.333V555.384C1186.59 628.539 717.299 790.269 737.269 851.956C749.791 890.636 1030.56 798.573 1230.27 739.259C1429.98 679.945 1707.81 576.502 1748.24 685.876C1813.14 861.447 1165.79 1308.68 837.118 1516.28L805.915 1154.46C1007.69 1057.58 1431.22 850.77 1411.25 798.573C1386.29 733.328 649.891 1089.21 581.261 899.408C512.631 709.602 1111.71 426.87 1423.73 300.333Z" fill="#CDE3FF"/>
<path opacity="0.666667" d="M1448.58 210.833V465.162C1212.16 538.109 744.312 699.382 764.221 760.894C776.704 799.464 1056.61 707.662 1255.71 648.516C1454.8 589.369 1731.78 486.22 1772.08 595.284C1836.79 770.357 1191.42 1216.32 863.763 1423.33L832.656 1062.54C1033.81 965.934 1456.04 759.711 1436.13 707.662C1411.24 642.601 677.111 997.479 608.692 808.211C540.273 618.943 1137.51 337.012 1448.58 210.833Z" fill="#DAEAFF"/>
<path opacity="0.777778" d="M1469.5 124.777V378.384C1233.81 451.124 767.405 611.938 787.252 673.276C799.697 711.736 1078.75 620.195 1277.23 561.217C1475.71 502.239 1751.83 399.382 1792.01 508.136C1856.51 682.712 1213.14 1127.41 886.487 1333.83L855.476 974.065C1056.01 877.734 1476.94 672.096 1457.09 620.195C1432.28 555.319 700.411 909.189 632.203 720.458C563.995 531.728 1159.39 250.598 1469.5 124.777Z" fill="#E6F1FF"/>
<path opacity="0.888889" d="M1486.5 42.1665V295.051C1251.55 367.583 786.577 527.94 806.363 589.102C818.769 627.453 1096.95 536.173 1294.82 477.363C1492.69 418.552 1767.96 315.989 1808.01 424.433C1872.32 598.512 1230.93 1041.94 905.291 1247.78L874.376 889.035C1074.29 792.978 1493.92 587.926 1474.13 536.173C1449.4 471.482 719.79 824.343 651.793 636.15C583.796 447.958 1177.35 167.628 1486.5 42.1665Z" fill="#F3F8FF"/>
<path d="M1499.58 -37V215.162C1265.35 287.487 801.829 447.385 821.553 508.373C833.921 546.615 1111.24 455.595 1308.5 396.953C1505.75 338.31 1780.16 236.04 1820.1 344.175C1884.2 517.756 1244.8 959.918 920.175 1165.17L889.356 807.449C1088.65 711.666 1506.97 507.2 1487.25 455.595C1462.59 391.089 735.249 742.942 667.462 555.287C599.676 367.632 1191.39 88.1035 1499.58 -37Z" fill="white"/>
</g>
</g>
<defs>
<filter id="filter0_d_402_392" x="161" y="-174" width="1787.58" height="2417.67" filterUnits="userSpaceOnUse" color-interpolation-filters="sRGB">
<feFlood flood-opacity="0" result="BackgroundImageFix"/>
<feColorMatrix in="SourceAlpha" type="matrix" values="0 0 0 0 0 0 0 0 0 0 0 0 0 0 0 0 0 0 127 0" result="hardAlpha"/>
<feOffset dx="-50" dy="37"/>
<feGaussianBlur stdDeviation="87"/>
<feComposite in2="hardAlpha" operator="out"/>
<feColorMatrix type="matrix" values="0 0 0 0 0 0 0 0 0 0 0 0 0 0 0 0 0 0 0.2 0"/>
<feBlend mode="normal" in2="BackgroundImageFix" result="effect1_dropShadow_402_392"/>
<feBlend mode="normal" in="SourceGraphic" in2="effect1_dropShadow_402_392" result="shape"/>
</filter>
<clipPath id="clip0_402_392">
<rect width="1386" height="825" fill="white" transform="translate(294)"/>
</clipPath>
</defs>
</svg>
