<?xml version="1.0" encoding="UTF-8"?>
<svg id="Layer_1" data-name="Layer 1" xmlns="http://www.w3.org/2000/svg" viewBox="0 0 83.52 60.19">
  <defs>
    <style>
      .cls-1 {
        fill: #fff;
      }
    </style>
  </defs>
  <path class="cls-1" d="M40.08,0l.17,12.4s-14.64,4.4-23.06,8.3c-8.74,4.04-11.53,7.01-9.01,7.01s35.24-9.69,40.43-10.87c9.54-2.17,14.28,5.45-16.81,29.91-14.19,11.17-19.14,13.44-19.14,13.44l-1.68-17.78s31.78-14.77,27.89-17.93c-1.64-1.32-27.5,9.83-35.17,7.63-5.89-1.69-4.32-6.84,1.48-12.22C12.53,13.09,30.4,3.83,40.08,0Z"/>
  <path class="cls-1" d="M52.58,48.27c-.08-.66-.4-1.18-.96-1.54-.56-.37-1.24-.55-2.06-.55-.59,0-1.11,.1-1.56,.29-.44,.19-.79,.46-1.03,.79-.24,.34-.37,.72-.37,1.15,0,.36,.09,.67,.26,.92,.17,.25,.4,.46,.67,.63,.27,.17,.55,.3,.85,.41,.3,.1,.57,.19,.82,.26l1.36,.37c.35,.09,.74,.22,1.16,.38,.43,.16,.84,.38,1.24,.66,.4,.27,.72,.63,.98,1.06,.26,.43,.39,.96,.39,1.59,0,.72-.19,1.38-.57,1.96-.38,.58-.92,1.05-1.65,1.39-.72,.34-1.59,.52-2.62,.52-.96,0-1.79-.15-2.49-.46-.7-.31-1.25-.74-1.65-1.3-.4-.55-.62-1.2-.67-1.93h1.68c.04,.51,.21,.93,.51,1.26,.3,.33,.68,.57,1.14,.73,.46,.16,.96,.24,1.49,.24,.62,0,1.18-.1,1.67-.3,.49-.21,.88-.49,1.17-.85,.29-.37,.43-.79,.43-1.28,0-.45-.12-.81-.37-1.09-.25-.28-.58-.51-.98-.68-.41-.17-.84-.33-1.32-.46l-1.65-.47c-1.05-.3-1.88-.73-2.49-1.29-.61-.56-.92-1.29-.92-2.19,0-.75,.2-1.4,.61-1.96,.41-.56,.96-1,1.65-1.31,.69-.31,1.47-.47,2.32-.47s1.63,.15,2.3,.46c.67,.31,1.2,.72,1.6,1.26,.4,.53,.61,1.14,.63,1.81h-1.57Z"/>
  <path class="cls-1" d="M57,58.32v-13.4h8.09v1.44h-6.47v4.53h6.05v1.44h-6.05v4.56h6.57v1.44h-8.19Z"/>
  <path class="cls-1" d="M78.8,49.1h-1.62c-.1-.47-.26-.88-.5-1.23-.24-.35-.52-.65-.86-.89-.34-.24-.71-.43-1.12-.55-.41-.12-.84-.18-1.28-.18-.81,0-1.55,.21-2.21,.62-.65,.41-1.18,1.01-1.56,1.81-.38,.8-.58,1.78-.58,2.94s.19,2.14,.58,2.94c.39,.8,.91,1.4,1.56,1.81,.66,.41,1.39,.62,2.21,.62,.44,0,.87-.06,1.28-.18,.41-.12,.78-.3,1.12-.54,.34-.24,.63-.54,.86-.9,.24-.36,.41-.77,.5-1.23h1.62c-.12,.69-.34,1.3-.67,1.84-.32,.54-.72,1-1.2,1.38-.48,.38-1.02,.66-1.62,.86-.59,.2-1.23,.29-1.9,.29-1.14,0-2.16-.28-3.05-.84-.89-.56-1.59-1.35-2.1-2.38-.51-1.03-.77-2.25-.77-3.67s.26-2.64,.77-3.67c.51-1.03,1.21-1.82,2.1-2.38,.89-.56,1.91-.84,3.05-.84,.68,0,1.31,.1,1.9,.29,.6,.2,1.14,.48,1.62,.86,.48,.38,.88,.83,1.2,1.37,.32,.54,.55,1.15,.67,1.84Z"/>
  <path class="cls-1" d="M82.34,58.42c-.32,0-.6-.12-.83-.35-.23-.23-.35-.51-.35-.83s.12-.6,.35-.83,.51-.35,.83-.35,.6,.12,.83,.35c.23,.23,.35,.51,.35,.83,0,.21-.05,.41-.16,.59-.1,.18-.25,.32-.43,.43-.17,.1-.37,.16-.59,.16Z"/>
</svg>