<svg width="114" height="134" viewBox="0 0 114 134" fill="none" xmlns="http://www.w3.org/2000/svg">
<rect x="26.207" y="6.26855" width="88.0805" height="113.059" rx="15" transform="rotate(10.2772 26.207 6.26855)" fill="#BCD7FB"/>
<g filter="url(#filter0_b_187_9)">
<rect x="21.1089" width="88.0805" height="112.62" rx="15" transform="rotate(10.2772 21.1089 0)" fill="white"/>
<rect x="21.5117" y="0.581183" width="87.0805" height="111.62" rx="14.5" transform="rotate(10.2772 21.5117 0.581183)" stroke="#579AF4"/>
</g>
<path d="M27.1217 57.873C25.8064 65.1275 27.4267 72.6074 31.6263 78.6672C35.8258 84.727 42.2606 88.8703 49.5151 90.1857C56.7696 91.5011 64.2495 89.8808 70.3093 85.6812C76.3691 81.4816 80.5124 75.0468 81.8278 67.7923C83.1432 60.5379 81.5228 53.058 77.3233 46.9982C73.1237 40.9384 66.6889 36.795 59.4344 35.4797C52.1799 34.1643 44.7 35.7846 38.6402 39.9842C32.5804 44.1838 28.4371 50.6186 27.1217 57.873ZM85.7354 68.5008C84.2321 76.7917 79.4968 84.1457 72.5713 88.9453C65.6459 93.7448 57.0974 95.5966 48.8066 94.0933C40.5158 92.59 33.1617 87.8548 28.3622 80.9293C23.5627 74.0038 21.7109 65.4553 23.2142 57.1645C24.7175 48.8737 29.4527 41.5196 36.3782 36.7201C43.3037 31.9206 51.8521 30.0688 60.1429 31.5721C68.4337 33.0754 75.7878 37.8106 80.5873 44.7361C85.3868 51.6616 87.2386 60.21 85.7354 68.5008ZM47.5385 45.4389L59.691 47.6424C66.373 48.854 69.7123 53.3865 68.6587 59.1971C67.8524 63.6439 64.6779 66.3052 61.2298 66.8908L65.3172 80.9428L59.3777 79.8659L55.852 66.8117L49.2717 65.6186L47.0923 77.6383L41.8717 76.6917L47.5385 45.4389ZM51.9828 50.644L50.0152 61.4954L56.0681 62.5929C59.9561 63.2978 62.5427 61.8982 63.1783 58.3931C63.8252 54.8254 61.8533 52.4338 58.1763 51.767L51.9828 50.644Z" fill="#579AF4"/>
<defs>
<filter id="filter0_b_187_9" x="-106.551" y="-107.567" width="321.894" height="341.662" filterUnits="userSpaceOnUse" color-interpolation-filters="sRGB">
<feFlood flood-opacity="0" result="BackgroundImageFix"/>
<feGaussianBlur in="BackgroundImageFix" stdDeviation="55"/>
<feComposite in2="SourceAlpha" operator="in" result="effect1_backgroundBlur_187_9"/>
<feBlend mode="normal" in="SourceGraphic" in2="effect1_backgroundBlur_187_9" result="shape"/>
</filter>
</defs>
</svg>
