<svg width="16" height="16" viewBox="0 0 16 16" fill="none" xmlns="http://www.w3.org/2000/svg">
<path d="M8 1C6.14391 1 4.36219 1.73795 3.05078 3.05023C1.73802 4.36304 1.00036 6.14345 1 8C1 9.85577 1.73828 11.6375 3.05078 12.9498C4.36219 14.262 6.14391 15 8 15C9.85609 15 11.6378 14.262 12.9492 12.9498C14.2617 11.6375 15 9.85577 15 8C15 6.14423 14.2617 4.36252 12.9492 3.05023C11.6378 1.73795 9.85609 1 8 1Z" fill="url(#paint0_linear_370_639)"/>
<path d="M4.48114 8.01349C6.36055 7.02572 7.61348 6.37445 8.23995 6.05982C10.0307 5.16137 10.4024 5.00533 10.6451 5.00005C10.6985 4.99901 10.8173 5.01493 10.8949 5.09058C10.9593 5.15439 10.9775 5.24067 10.9865 5.30125C10.9946 5.36177 11.0057 5.4997 10.9966 5.60738C10.8999 6.83723 10.4799 9.82169 10.2664 11.1992C10.1768 11.782 9.99849 11.9775 9.82626 11.9965C9.45159 12.0381 9.16756 11.6981 8.80498 11.4114C8.23793 10.9626 7.91765 10.6833 7.36672 10.2455C6.73018 9.73941 7.14313 9.46124 7.50571 9.00673C7.60039 8.88775 9.25015 7.07761 9.28137 6.91343C9.2854 6.89289 9.28943 6.81633 9.25116 6.77598C9.21389 6.73551 9.1585 6.74936 9.11821 6.7603C9.0608 6.77586 8.15534 7.4987 6.39882 8.92871C6.14199 9.14186 5.90933 9.24577 5.69983 9.2403C5.4702 9.23435 5.02704 9.08329 4.69769 8.95423C4.29481 8.79588 3.97352 8.71215 4.00172 8.44321C4.01583 8.30321 4.17597 8.15993 4.48114 8.01349Z" fill="white"/>
<defs>
<linearGradient id="paint0_linear_370_639" x1="8" y1="1" x2="8" y2="15" gradientUnits="userSpaceOnUse">
<stop stop-color="#2AABEE"/>
<stop offset="1" stop-color="#229ED9"/>
</linearGradient>
</defs>
</svg>
