<svg width="16" height="16" viewBox="0 0 16 16" fill="none" xmlns="http://www.w3.org/2000/svg">
<g clip-path="url(#clip0_370_634)">
<path d="M0.341262 7.89527C0.33965 9.23251 0.693601 10.5465 1.36743 11.7049L0.276855 15.6534L4.35197 14.5939C5.47907 15.2023 6.7419 15.5211 8.02519 15.5212H8.02858C12.2649 15.5212 15.7136 12.1029 15.7154 7.90132C15.7162 5.86529 14.9173 3.95093 13.4659 2.51053C12.0148 1.07026 10.0847 0.276716 8.02831 0.275909C3.7913 0.275909 0.343025 3.69399 0.341262 7.8954" fill="url(#paint0_linear_370_634)"/>
<path d="M0.0668475 7.89284C0.0651827 9.27798 0.431807 10.6391 1.12976 11.8389L0 15.929L4.22115 14.8315C5.38869 15.4619 6.69689 15.7923 8.02631 15.7924H8.0297C12.418 15.7924 15.9904 12.251 15.9924 7.89916C15.9931 5.78998 15.1654 3.80679 13.6622 2.31476C12.1588 0.822991 10.1597 0.000806723 8.0297 0C3.64054 0 0.0686102 3.54071 0.0668475 7.89284ZM2.58075 11.6328L2.42305 11.3847C1.7602 10.3389 1.40941 9.12844 1.41125 7.89324C1.41261 4.27603 4.38156 1.33324 8.03227 1.33324C9.8 1.33392 11.4614 2.01721 12.7112 3.25714C13.9608 4.49721 14.6484 6.14548 14.6479 7.89862C14.6462 11.516 11.6774 14.4593 8.02956 14.4593H8.02712C6.84185 14.4594 5.67836 14.1435 4.65844 13.5447L4.41668 13.4025L1.91186 14.0538L2.58061 11.6328H2.58075Z" fill="url(#paint1_linear_370_634)"/>
<path d="M6.03926 4.59307C5.89011 4.2646 5.73336 4.25801 5.59167 4.25223C5.4756 4.24725 5.34286 4.24766 5.21038 4.24766C5.0775 4.24766 4.86204 4.29714 4.67981 4.49452C4.49743 4.69189 3.9834 5.16907 3.9834 6.13983C3.9834 7.11058 4.69635 8.0484 4.79574 8.18016C4.89526 8.31166 6.17214 10.3673 8.19438 11.158C9.8752 11.8153 10.2172 11.6846 10.5819 11.6516C10.9467 11.6188 11.7591 11.1746 11.9248 10.7138C12.0907 10.2532 12.0907 9.85828 12.0409 9.77586C11.9913 9.69371 11.8585 9.64423 11.6596 9.54567C11.4606 9.44699 10.4824 8.96967 10.3001 8.90379C10.1176 8.83804 9.98503 8.80524 9.85228 9.00275C9.71967 9.19999 9.33865 9.64423 9.22258 9.77586C9.10652 9.90762 8.99031 9.92416 8.7914 9.82561C8.59235 9.72652 7.95153 9.51838 7.1914 8.84638C6.59994 8.32335 6.20062 7.67771 6.08455 7.4802C5.96848 7.28282 6.07221 7.17606 6.17187 7.07764C6.26136 6.98931 6.37092 6.84732 6.47045 6.7321C6.5697 6.61687 6.60292 6.53472 6.66923 6.40309C6.73567 6.27132 6.70231 6.15623 6.65269 6.05754C6.60292 5.95885 6.21621 4.98325 6.03926 4.59307Z" fill="white"/>
</g>
<defs>
<linearGradient id="paint0_linear_370_634" x1="7.99611" y1="15.6534" x2="7.99611" y2="0.275909" gradientUnits="userSpaceOnUse">
<stop stop-color="#1FAF38"/>
<stop offset="1" stop-color="#60D669"/>
</linearGradient>
<linearGradient id="paint1_linear_370_634" x1="7.9962" y1="15.929" x2="7.9962" y2="0" gradientUnits="userSpaceOnUse">
<stop stop-color="#F9F9F9"/>
<stop offset="1" stop-color="white"/>
</linearGradient>
<clipPath id="clip0_370_634">
<rect width="16" height="16" fill="white"/>
</clipPath>
</defs>
</svg>
