<svg width="91" height="86" viewBox="0 0 91 86" fill="none" xmlns="http://www.w3.org/2000/svg">
<rect x="14.2354" y="4.39186" width="76.566" height="72.6193" rx="15" transform="rotate(6.94106 14.2354 4.39186)" fill="#579AF4"/>
<g filter="url(#filter0_b_187_79)">
<rect x="9.22949" width="76.566" height="71.83" rx="15" transform="rotate(6.94106 9.22949 0)" fill="#2D2D2D"/>
<rect x="9.6654" y="0.55676" width="75.566" height="70.83" rx="14.5" transform="rotate(6.94106 9.6654 0.55676)" stroke="#579AF4"/>
</g>
<path d="M49.4624 26.318C48.5918 26.2183 47.7232 26.1555 46.7814 26.289C45.755 26.4377 44.7598 26.7533 43.8353 27.2233C42.7207 26.3719 41.6285 25.6505 40.5309 25.3785C39.1679 25.0393 37.8716 24.9753 36.3744 24.8248C34.5991 24.6453 33.3341 25.4089 31.3717 25.9047C29.4112 26.3976 26.9144 26.8029 23.5106 26.3886L21.9435 26.1978L20.1072 41.2812L20.9359 41.829L23.651 43.602L32.541 56.3128L32.5837 56.3673C33.6174 57.6731 35.1683 58.1546 36.579 58.2452C37.9911 58.3376 39.3574 58.0873 40.4864 57.579C42.971 56.4645 49.8091 52.8488 49.8091 52.8488L49.9685 52.768L50.079 52.6829C50.9152 52.0325 51.3998 51.1738 51.7662 50.2547L58.1583 47.9508L62.8484 46.9823L63.9686 46.7688L65.8226 31.5396L64.2555 31.3489C61.619 31.0462 59.0677 30.2287 56.7462 28.9429C54.961 27.9829 53.9322 26.9496 52.1472 26.6941C51.1935 26.5589 50.3297 26.4172 49.4608 26.3178L49.4624 26.318ZM49.1278 29.4579C49.8338 29.5375 50.6441 29.6743 51.67 29.8167C51.8338 29.843 53.2616 30.6689 55.2615 31.7457C56.9522 32.6592 59.3434 33.5785 62.3247 34.145L61.1085 44.1353L57.3346 44.9195L57.2374 44.9077L57.133 44.9427L52.0924 46.7654C51.9288 46.0075 51.6098 45.2918 51.1555 44.6635L51.0747 44.5041L45.41 35.5161L44.5797 34.1714L43.235 35.0017L38.6068 37.9179C37.074 38.7252 35.9628 38.3037 34.8669 37.6121C34.5495 37.4112 34.5742 37.3649 34.327 37.1488L42.1992 32.0925L42.3082 32.0072C44.6881 30.1595 46.0822 29.5897 47.2438 29.4273C47.8267 29.3424 48.425 29.3787 49.1294 29.4581L49.1278 29.4579ZM38.2038 28.1773C38.7291 28.2213 39.2507 28.3012 39.765 28.4167C40.1697 28.5152 40.5926 28.9214 40.9735 29.1109C40.7957 29.2387 40.6694 29.3092 40.4838 29.4488L40.3747 29.5357L30.9399 35.5914L29.486 36.5085L30.5123 37.8755C30.5123 37.8755 31.4962 39.2389 33.1516 40.2849C34.807 41.3309 37.4623 42.1329 40.104 40.7337L40.2147 40.647L43.5541 38.5202L48.4692 46.3243L48.5058 46.429L48.5486 46.4819C49.4583 47.6312 49.2389 49.2377 48.1012 50.1568C48.0874 50.1662 48.1094 50.1944 48.0955 50.2038C48.082 50.2101 47.8603 50.3072 47.8329 50.3229L46.1153 47.2798L43.3421 48.8315L45.0233 51.7684C44.1413 52.2208 43.7395 52.4645 42.7927 52.9393L41.0339 49.8419L38.2592 51.3934L39.9405 54.3303C39.7484 54.4182 39.3518 54.6196 39.2003 54.6887C38.6686 54.9277 37.6717 55.1482 36.8148 55.0932C36.0087 55.0396 35.4184 54.7801 35.1496 54.4929L35.107 54.4384L26.0391 41.5565L25.8731 41.2866L23.4799 39.7039L24.7141 29.5663C27.7311 29.7348 30.2889 29.4434 32.1407 28.9802C34.3321 28.4328 35.9076 27.9534 36.0902 27.9693L38.2023 28.1771L38.2038 28.1773Z" fill="#579AF4"/>
<defs>
<filter id="filter0_b_187_79" x="-107.75" y="-108.299" width="301.283" height="297.154" filterUnits="userSpaceOnUse" color-interpolation-filters="sRGB">
<feFlood flood-opacity="0" result="BackgroundImageFix"/>
<feGaussianBlur in="BackgroundImageFix" stdDeviation="55"/>
<feComposite in2="SourceAlpha" operator="in" result="effect1_backgroundBlur_187_79"/>
<feBlend mode="normal" in="SourceGraphic" in2="effect1_backgroundBlur_187_79" result="shape"/>
</filter>
</defs>
</svg>
