<?xml version="1.0" encoding="UTF-8"?>
<svg id="Layer_1" data-name="Layer 1" xmlns="http://www.w3.org/2000/svg" xmlns:xlink="http://www.w3.org/1999/xlink" viewBox="0 0 154 178">
  <defs>
    <style>
      .cls-1 {
        stroke: #579af4;
        stroke-miterlimit: 4;
        stroke-width: 1px;
      }

      .cls-1, .cls-2 {
        fill: none;
      }

      .cls-3 {
        clip-path: url(#clippath);
      }

      .cls-4 {
        fill: #fff;
      }

      .cls-5 {
        fill: #bcd7fb;
      }

      .cls-6 {
        fill: #579af4;
      }
    </style>
    <clipPath id="clippath">
      <rect class="cls-2" x="34.72" y="44.58" width="79.51" height="79.51" transform="translate(-23.62 139.43) rotate(-77.88)"/>
    </clipPath>
  </defs>
  <rect class="cls-5" x="6.46" y="35.21" width="147.95" height="115.26" rx="15" ry="15" transform="translate(-27.23 151.98) rotate(-77.88)"/>
  <g>
    <rect class="cls-4" x=".4" y="26.52" width="147.37" height="115.26" rx="15" ry="15" transform="translate(-23.74 138.91) rotate(-77.88)"/>
    <rect class="cls-1" x=".9" y="27.02" width="146.37" height="114.26" rx="14.5" ry="14.5" transform="translate(-23.74 138.91) rotate(-77.88)"/>
  </g>
  <g class="cls-3">
    <path class="cls-6" d="M92.75,89.25c-.24-.37-.54-.68-.9-.93-.36-.25-.76-.42-1.19-.51-.43-.09-.86-.1-1.29-.02-.43,.08-.84,.24-1.2,.48l-6.27,4.05c-2.24-1.23-6.36-3.81-8.58-7.24s-2.88-8.25-3.08-10.8l6.27-4.05c.37-.24,.68-.54,.93-.9,.25-.36,.42-.76,.51-1.19,.09-.43,.1-.86,.02-1.29-.08-.43-.24-.84-.48-1.2l-10.17-15.74c-.24-.37-.54-.68-.9-.93-.36-.25-.76-.42-1.19-.51s-.86-.1-1.29-.02c-.43,.08-.84,.24-1.2,.48l-10.67,6.9c-1.5,.97-2.55,2.51-2.9,4.24-.92,4.63-3.14,20.91,6.78,36.25,9.91,15.34,25.67,20,30.27,21.07l.09,.02c1.71,.37,3.47,.04,4.96-.92l10.67-6.9c.36-.24,.68-.54,.93-.9,.25-.36,.42-.76,.51-1.19,.09-.43,.1-.86,.02-1.29-.08-.43-.24-.84-.48-1.2l-10.17-15.74Zm-5.08,21.65c-4.03-.94-17.63-4.99-26.16-18.2-8.56-13.24-6.64-27.35-5.85-31.33l7.89-5.1,6.58,10.18-5.09,3.29c-.46,.3-.84,.71-1.11,1.19-.26,.48-.4,1.02-.41,1.57,0,.39,0,9.63,4.22,16.16,4.22,6.53,12.65,10.33,13,10.49,.5,.23,1.05,.32,1.6,.28,.55-.04,1.08-.22,1.54-.52l5.09-3.29,6.58,10.18-7.89,5.1Z"/>
  </g>
</svg>