<?xml version="1.0" encoding="UTF-8"?>
<svg id="Layer_1" data-name="Layer 1" xmlns="http://www.w3.org/2000/svg" viewBox="0 0 22.92 22.92">
  <defs>
    <style>
      .cls-1 {
        fill: #9bc6ff;
        fill-rule: evenodd;
      }
    </style>
  </defs>
  <path class="cls-1" d="M11.46,0C5.13,0,0,5.13,0,11.46s5.13,11.46,11.46,11.46,11.46-5.13,11.46-11.46S17.79,0,11.46,0Zm4.97,9.52c.09-.1,.16-.23,.2-.36,.04-.13,.06-.27,.05-.41-.01-.14-.05-.27-.11-.4-.06-.12-.15-.23-.26-.32-.11-.09-.23-.16-.36-.2-.13-.04-.27-.05-.41-.04-.14,.01-.27,.06-.39,.12-.12,.07-.23,.16-.32,.27l-4.48,5.37-2.32-2.32c-.2-.19-.46-.29-.73-.29-.27,0-.53,.11-.73,.31-.19,.19-.3,.45-.31,.73,0,.27,.1,.54,.29,.73l3.12,3.12c.1,.1,.22,.18,.36,.23,.13,.05,.28,.08,.42,.07,.14,0,.29-.04,.42-.11,.13-.06,.24-.15,.34-.27l5.21-6.25Z"/>
</svg>