<?xml version="1.0" encoding="UTF-8"?>
<svg id="Layer_1" data-name="Layer 1" xmlns="http://www.w3.org/2000/svg" viewBox="0 0 252.72 182.13">
  <defs>
    <style>
      .cls-1 {
        fill: #579af4;
      }
    </style>
  </defs>
  <path class="cls-1" d="M121.28,0l.52,37.53s-44.3,13.33-69.78,25.1c-26.43,12.22-34.87,21.22-27.25,21.22s106.63-29.31,122.35-32.88c28.88-6.58,43.19,16.48-50.85,90.49-42.93,33.79-57.92,40.66-57.92,40.66l-5.08-53.8s96.17-44.7,84.39-54.25c-4.95-4.01-83.22,29.76-106.42,23.09-17.82-5.13-13.07-20.69,4.48-36.99C37.91,39.6,91.99,11.59,121.28,0Z"/>
  <path class="cls-1" d="M159.1,146.05c-.24-2.01-1.2-3.57-2.89-4.67-1.69-1.11-3.76-1.66-6.22-1.66-1.8,0-3.37,.29-4.71,.87-1.33,.58-2.38,1.38-3.13,2.4-.74,1.02-1.11,2.17-1.11,3.47,0,1.08,.26,2.01,.77,2.79,.53,.77,1.2,1.41,2.02,1.92,.82,.5,1.68,.92,2.57,1.25,.9,.32,1.72,.57,2.48,.77l4.12,1.11c1.06,.28,2.23,.66,3.52,1.15,1.31,.49,2.56,1.15,3.74,2,1.2,.83,2.19,1.9,2.97,3.21,.78,1.31,1.17,2.91,1.17,4.81,0,2.19-.57,4.17-1.72,5.94-1.13,1.77-2.8,3.18-4.99,4.22-2.18,1.04-4.83,1.56-7.94,1.56-2.9,0-5.42-.47-7.54-1.41-2.11-.94-3.78-2.24-4.99-3.92-1.2-1.68-1.88-3.62-2.04-5.84h5.07c.13,1.53,.65,2.8,1.54,3.8,.91,.99,2.06,1.73,3.45,2.22,1.4,.48,2.9,.71,4.51,.71,1.88,0,3.56-.3,5.05-.91,1.49-.62,2.67-1.48,3.54-2.57,.87-1.11,1.31-2.4,1.31-3.88,0-1.35-.38-2.44-1.13-3.29-.75-.85-1.74-1.53-2.97-2.06s-2.55-.99-3.98-1.39l-4.99-1.43c-3.17-.91-5.68-2.21-7.53-3.9-1.85-1.69-2.77-3.9-2.77-6.64,0-2.27,.61-4.25,1.84-5.94,1.24-1.7,2.9-3.02,4.99-3.96,2.1-.95,4.44-1.43,7.03-1.43s4.94,.47,6.97,1.41c2.03,.93,3.64,2.19,4.83,3.8,1.2,1.61,1.83,3.44,1.9,5.49h-4.75Z"/>
  <path class="cls-1" d="M172.48,176.47v-40.56h24.48v4.36h-19.57v13.7h18.3v4.36h-18.3v13.78h19.88v4.36h-24.79Z"/>
  <path class="cls-1" d="M238.44,148.58h-4.91c-.29-1.41-.8-2.65-1.53-3.72-.71-1.07-1.58-1.97-2.61-2.69-1.02-.74-2.15-1.29-3.39-1.66-1.24-.37-2.54-.55-3.88-.55-2.46,0-4.68,.62-6.67,1.86-1.98,1.24-3.56,3.07-4.73,5.49-1.16,2.42-1.74,5.38-1.74,8.89s.58,6.48,1.74,8.89c1.18,2.42,2.75,4.24,4.73,5.49,1.99,1.24,4.22,1.86,6.67,1.86,1.35,0,2.64-.18,3.88-.55,1.24-.37,2.37-.92,3.39-1.64,1.03-.74,1.9-1.64,2.61-2.71,.73-1.08,1.24-2.32,1.53-3.72h4.91c-.37,2.07-1.04,3.93-2.02,5.57-.98,1.64-2.19,3.03-3.64,4.18-1.45,1.14-3.08,2-4.89,2.6-1.8,.59-3.72,.89-5.76,.89-3.46,0-6.54-.84-9.23-2.53-2.69-1.69-4.81-4.09-6.36-7.21-1.54-3.12-2.32-6.81-2.32-11.09s.77-7.97,2.32-11.09c1.54-3.12,3.66-5.52,6.36-7.21,2.69-1.69,5.77-2.54,9.23-2.54,2.05,0,3.97,.3,5.76,.89,1.81,.59,3.44,1.46,4.89,2.61,1.45,1.13,2.67,2.52,3.64,4.16,.98,1.62,1.65,3.48,2.02,5.56Z"/>
  <path class="cls-1" d="M249.15,176.78c-.98,0-1.82-.35-2.52-1.05-.7-.7-1.05-1.54-1.05-2.51s.35-1.82,1.05-2.52c.7-.7,1.54-1.05,2.52-1.05s1.82,.35,2.52,1.05c.7,.7,1.05,1.54,1.05,2.52,0,.65-.17,1.24-.5,1.78-.32,.54-.75,.98-1.29,1.31-.53,.32-1.12,.48-1.78,.48Z"/>
</svg>