<svg width="1420" height="638" viewBox="0 0 1420 638" fill="none" xmlns="http://www.w3.org/2000/svg">
<mask id="path-1-inside-1_405_390" fill="white">
<path fill-rule="evenodd" clip-rule="evenodd" d="M70 0C58.9543 0 50 8.95429 50 20V62.7603V157.549V560.986C50 572.031 58.9543 580.986 70 580.986H1350C1361.05 580.986 1370 572.031 1370 560.986V62.7603C1370 51.7146 1361.05 42.7603 1350 42.7603H687.211C674.641 42.7603 664.451 32.5702 664.451 20C664.451 8.9543 655.497 0 644.451 0H70Z"/>
</mask>
<path fill-rule="evenodd" clip-rule="evenodd" d="M70 0C58.9543 0 50 8.95429 50 20V62.7603V157.549V560.986C50 572.031 58.9543 580.986 70 580.986H1350C1361.05 580.986 1370 572.031 1370 560.986V62.7603C1370 51.7146 1361.05 42.7603 1350 42.7603H687.211C674.641 42.7603 664.451 32.5702 664.451 20C664.451 8.9543 655.497 0 644.451 0H70Z" fill="#579AF4"/>
<path d="M52 20C52 10.0589 60.0589 2 70 2V-2C57.8497 -2 48 7.84972 48 20H52ZM52 62.7603V20H48V62.7603H52ZM52 157.549V62.7603H48V157.549H52ZM52 560.986V157.549H48V560.986H52ZM70 578.986C60.0589 578.986 52 570.927 52 560.986H48C48 573.136 57.8497 582.986 70 582.986V578.986ZM1350 578.986H70V582.986H1350V578.986ZM1368 560.986C1368 570.927 1359.94 578.986 1350 578.986V582.986C1362.15 582.986 1372 573.136 1372 560.986H1368ZM1368 62.7603V560.986H1372V62.7603H1368ZM1350 44.7603C1359.94 44.7603 1368 52.8192 1368 62.7603H1372C1372 50.61 1362.15 40.7603 1350 40.7603V44.7603ZM687.211 44.7603H1350V40.7603H687.211V44.7603ZM644.451 2C654.392 2 662.451 10.0589 662.451 20H666.451C666.451 7.84974 656.601 -2 644.451 -2V2ZM70 2H644.451V-2H70V2ZM687.211 40.7603C675.746 40.7603 666.451 31.4656 666.451 20H662.451C662.451 33.6747 673.536 44.7603 687.211 44.7603V40.7603Z" fill="#9BC6FF" mask="url(#path-1-inside-1_405_390)"/>
<mask id="path-3-inside-2_405_390" fill="white">
<path fill-rule="evenodd" clip-rule="evenodd" d="M60 343C48.9543 343 40 351.954 40 363V406.408V503V912.789C40 923.834 48.9543 932.789 60 932.789H1360C1371.05 932.789 1380 923.834 1380 912.789V406.408C1380 395.363 1371.05 386.408 1360 386.408H720C708.954 386.408 700 377.454 700 366.408V363C700 351.954 691.046 343 680 343H60Z"/>
</mask>
<path fill-rule="evenodd" clip-rule="evenodd" d="M60 343C48.9543 343 40 351.954 40 363V406.408V503V912.789C40 923.834 48.9543 932.789 60 932.789H1360C1371.05 932.789 1380 923.834 1380 912.789V406.408C1380 395.363 1371.05 386.408 1360 386.408H720C708.954 386.408 700 377.454 700 366.408V363C700 351.954 691.046 343 680 343H60Z" fill="#579AF4"/>
<path d="M42 363C42 353.059 50.0589 345 60 345V341C47.8497 341 38 350.85 38 363H42ZM42 406.408V363H38V406.408H42ZM42 503V406.408H38V503H42ZM42 912.789V503H38V912.789H42ZM60 930.789C50.0589 930.789 42 922.73 42 912.789H38C38 924.939 47.8497 934.789 60 934.789V930.789ZM1360 930.789H60V934.789H1360V930.789ZM1378 912.789C1378 922.73 1369.94 930.789 1360 930.789V934.789C1372.15 934.789 1382 924.939 1382 912.789H1378ZM1378 406.408V912.789H1382V406.408H1378ZM1360 388.408C1369.94 388.408 1378 396.467 1378 406.408H1382C1382 394.258 1372.15 384.408 1360 384.408V388.408ZM720 388.408H1360V384.408H720V388.408ZM698 363V366.408H702V363H698ZM680 345C689.941 345 698 353.059 698 363H702C702 350.85 692.15 341 680 341V345ZM60 345H680V341H60V345ZM720 384.408C710.059 384.408 702 376.349 702 366.408H698C698 378.559 707.85 388.408 720 388.408V384.408Z" fill="#9BC6FF" mask="url(#path-3-inside-2_405_390)"/>
<mask id="path-5-inside-3_405_390" fill="white">
<path fill-rule="evenodd" clip-rule="evenodd" d="M50 371C38.9543 371 30 379.954 30 391V434.845V534V949.38C30 960.426 38.9543 969.38 50 969.38H1370C1381.05 969.38 1390 960.426 1390 949.38V434.845C1390 423.799 1381.05 414.845 1370 414.845H710.845C697.676 414.845 687 404.169 687 391C687 379.954 678.046 371 667 371H50Z"/>
</mask>
<path fill-rule="evenodd" clip-rule="evenodd" d="M50 371C38.9543 371 30 379.954 30 391V434.845V534V949.38C30 960.426 38.9543 969.38 50 969.38H1370C1381.05 969.38 1390 960.426 1390 949.38V434.845C1390 423.799 1381.05 414.845 1370 414.845H710.845C697.676 414.845 687 404.169 687 391C687 379.954 678.046 371 667 371H50Z" fill="#579AF4"/>
<path d="M32 391C32 381.059 40.0589 373 50 373V369C37.8497 369 28 378.85 28 391H32ZM32 434.845V391H28V434.845H32ZM32 534V434.845H28V534H32ZM32 949.38V534H28V949.38H32ZM50 967.38C40.0589 967.38 32 959.321 32 949.38H28C28 961.53 37.8498 971.38 50 971.38V967.38ZM1370 967.38H50V971.38H1370V967.38ZM1388 949.38C1388 959.321 1379.94 967.38 1370 967.38V971.38C1382.15 971.38 1392 961.53 1392 949.38H1388ZM1388 434.845V949.38H1392V434.845H1388ZM1370 416.845C1379.94 416.845 1388 424.904 1388 434.845H1392C1392 422.694 1382.15 412.845 1370 412.845V416.845ZM710.845 416.845H1370V412.845H710.845V416.845ZM667 373C676.941 373 685 381.059 685 391H689C689 378.85 679.15 369 667 369V373ZM50 373H667V369H50V373ZM710.845 412.845C698.78 412.845 689 403.065 689 391H685C685 405.274 696.571 416.845 710.845 416.845V412.845Z" fill="#9BC6FF" mask="url(#path-5-inside-3_405_390)"/>
<mask id="path-7-inside-4_405_390" fill="white">
<path fill-rule="evenodd" clip-rule="evenodd" d="M40 407C28.9543 407 20 415.954 20 427V472.084V573V994.774C20 1005.82 28.9543 1014.77 40 1014.77H1380C1391.05 1014.77 1400 1005.82 1400 994.774V472.084C1400 461.038 1391.05 452.084 1380 452.084H705.084C691.231 452.084 680 440.854 680 427C680 415.954 671.046 407 660 407H40Z"/>
</mask>
<path fill-rule="evenodd" clip-rule="evenodd" d="M40 407C28.9543 407 20 415.954 20 427V472.084V573V994.774C20 1005.82 28.9543 1014.77 40 1014.77H1380C1391.05 1014.77 1400 1005.82 1400 994.774V472.084C1400 461.038 1391.05 452.084 1380 452.084H705.084C691.231 452.084 680 440.854 680 427C680 415.954 671.046 407 660 407H40Z" fill="#579AF4"/>
<path d="M22 427C22 417.059 30.0589 409 40 409V405C27.8497 405 18 414.85 18 427H22ZM22 472.084V427H18V472.084H22ZM22 573V472.084H18V573H22ZM22 994.774V573H18V994.774H22ZM40 1012.77C30.0589 1012.77 22 1004.72 22 994.774H18C18 1006.92 27.8497 1016.77 40 1016.77V1012.77ZM1380 1012.77H40V1016.77H1380V1012.77ZM1398 994.774C1398 1004.72 1389.94 1012.77 1380 1012.77V1016.77C1392.15 1016.77 1402 1006.92 1402 994.774H1398ZM1398 472.084V994.774H1402V472.084H1398ZM1380 454.084C1389.94 454.084 1398 462.143 1398 472.084H1402C1402 459.934 1392.15 450.084 1380 450.084V454.084ZM705.084 454.084H1380V450.084H705.084V454.084ZM660 409C669.941 409 678 417.059 678 427H682C682 414.85 672.15 405 660 405V409ZM40 409H660V405H40V409ZM705.084 450.084C692.335 450.084 682 439.749 682 427H678C678 441.958 690.126 454.084 705.084 454.084V450.084Z" fill="#9BC6FF" mask="url(#path-7-inside-4_405_390)"/>
<mask id="path-9-inside-5_405_390" fill="white">
<path fill-rule="evenodd" clip-rule="evenodd" d="M30 453C18.9543 453 10 461.954 10 473V518.352V621.31V1049.2C10 1060.24 18.9543 1069.2 30 1069.2H1390C1401.05 1069.2 1410 1060.24 1410 1049.2V518.352C1410 507.306 1401.05 498.352 1390 498.352H697.042C683.041 498.352 671.69 487.002 671.69 473C671.69 461.954 662.736 453 651.69 453H30Z"/>
</mask>
<path fill-rule="evenodd" clip-rule="evenodd" d="M30 453C18.9543 453 10 461.954 10 473V518.352V621.31V1049.2C10 1060.24 18.9543 1069.2 30 1069.2H1390C1401.05 1069.2 1410 1060.24 1410 1049.2V518.352C1410 507.306 1401.05 498.352 1390 498.352H697.042C683.041 498.352 671.69 487.002 671.69 473C671.69 461.954 662.736 453 651.69 453H30Z" fill="#579AF4"/>
<path d="M12 473C12 463.059 20.0589 455 30 455V451C17.8497 451 8 460.85 8 473H12ZM12 518.352V473H8V518.352H12ZM12 621.31V518.352H8V621.31H12ZM12 1049.2V621.31H8V1049.2H12ZM30 1067.2C20.0588 1067.2 12 1059.14 12 1049.2H8C8 1061.35 17.8497 1071.2 30 1071.2V1067.2ZM1390 1067.2H30V1071.2H1390V1067.2ZM1408 1049.2C1408 1059.14 1399.94 1067.2 1390 1067.2V1071.2C1402.15 1071.2 1412 1061.35 1412 1049.2H1408ZM1408 518.352V1049.2H1412V518.352H1408ZM1390 500.352C1399.94 500.352 1408 508.411 1408 518.352H1412C1412 506.202 1402.15 496.352 1390 496.352V500.352ZM697.042 500.352H1390V496.352H697.042V500.352ZM651.69 455C661.631 455 669.69 463.059 669.69 473H673.69C673.69 460.85 663.84 451 651.69 451V455ZM30 455H651.69V451H30V455ZM697.042 496.352C684.145 496.352 673.69 485.897 673.69 473H669.69C669.69 488.106 681.936 500.352 697.042 500.352V496.352Z" fill="#9BC6FF" mask="url(#path-9-inside-5_405_390)"/>
<mask id="path-11-inside-6_405_390" fill="white">
<path fill-rule="evenodd" clip-rule="evenodd" d="M20 507C8.95431 507 0 515.954 0 527V573V678V1112C0 1123.05 8.95432 1132 20 1132H1400C1411.05 1132 1420 1123.05 1420 1112V573C1420 561.954 1411.05 553 1400 553H687C672.641 553 661 541.359 661 527C661 515.954 652.046 507 641 507H20Z"/>
</mask>
<path fill-rule="evenodd" clip-rule="evenodd" d="M20 507C8.95431 507 0 515.954 0 527V573V678V1112C0 1123.05 8.95432 1132 20 1132H1400C1411.05 1132 1420 1123.05 1420 1112V573C1420 561.954 1411.05 553 1400 553H687C672.641 553 661 541.359 661 527C661 515.954 652.046 507 641 507H20Z" fill="#579AF4"/>
<path d="M2 527C2 517.059 10.0589 509 20 509V505C7.84974 505 -2 514.85 -2 527H2ZM2 573V527H-2V573H2ZM2 678V573H-2V678H2ZM2 1112V678H-2V1112H2ZM20 1130C10.0589 1130 2 1121.94 2 1112H-2C-2 1124.15 7.84975 1134 20 1134V1130ZM1400 1130H20V1134H1400V1130ZM1418 1112C1418 1121.94 1409.94 1130 1400 1130V1134C1412.15 1134 1422 1124.15 1422 1112H1418ZM1418 573V1112H1422V573H1418ZM1400 555C1409.94 555 1418 563.059 1418 573H1422C1422 560.85 1412.15 551 1400 551V555ZM687 555H1400V551H687V555ZM641 509C650.941 509 659 517.059 659 527H663C663 514.85 653.15 505 641 505V509ZM20 509H641V505H20V509ZM687 551C673.745 551 663 540.255 663 527H659C659 542.464 671.536 555 687 555V551Z" fill="#9BC6FF" mask="url(#path-11-inside-6_405_390)"/>
<path d="M215.544 257L221.156 222.108H143.564L146.248 203.32L246.776 84.9799H267.76L249.216 200.88H273.86L270.932 222.108H246.288L240.676 257H215.544ZM224.328 200.88L236.528 124.02L171.624 200.88H224.328Z" fill="#9BC6FF"/>
<path d="M352.577 259.196C334.521 259.196 320.776 253.747 311.341 242.848C302.069 231.787 297.433 215.927 297.433 195.268C297.433 172.007 300.28 151.999 305.973 135.244C311.666 118.327 319.718 105.395 330.129 96.4479C340.54 87.3386 352.821 82.7839 366.973 82.7839C385.029 82.7839 398.693 88.2333 407.965 99.1319C417.4 110.031 422.117 125.728 422.117 146.224C422.117 169.648 419.27 189.819 413.577 206.736C407.884 223.653 399.832 236.667 389.421 245.776C379.173 254.723 366.892 259.196 352.577 259.196ZM353.797 238.212C366.973 238.212 377.465 230.079 385.273 213.812C393.244 197.383 397.31 173.389 397.473 141.832C397.636 116.456 387.062 103.768 365.753 103.768C352.74 103.768 342.166 111.901 334.033 128.168C326.062 144.435 322.077 168.428 322.077 200.148C322.077 225.524 332.65 238.212 353.797 238.212Z" fill="#9BC6FF"/>
<path d="M508.154 257L513.766 222.108H436.174L438.858 203.32L539.386 84.9799H560.37L541.826 200.88H566.47L563.542 222.108H538.898L533.286 257H508.154ZM516.938 200.88L529.138 124.02L464.234 200.88H516.938Z" fill="#9BC6FF"/>
</svg>
